<mxfile host="app.diagrams.net" modified="2024-05-17T03:03:32.005Z" agent="Mozilla/5.0 (Windows NT 10.0; Win64; x64) AppleWebKit/537.36 (KHTML, like Gecko) Chrome/124.0.0.0 Safari/537.36" version="24.4.2" etag="DnNg7oGYp8jwXkMhuU2B" type="github">
  <diagram name="PÃ¡gina-1" id="lqkS_jFr3hmFEtM5Utdu">
    <mxGraphModel>
      <root>
        <mxCell id="0" />
        <mxCell id="1" parent="0" />
      </root>
    </mxGraphModel>
  </diagram>
</mxfile>
